<?xml version="1.0" encoding="UTF-8" standalone="no"?>
<svg
   xmlns:dc="http://purl.org/dc/elements/1.1/"
   xmlns:cc="http://creativecommons.org/ns#"
   xmlns:rdf="http://www.w3.org/1999/02/22-rdf-syntax-ns#"
   xmlns:svg="http://www.w3.org/2000/svg"
   xmlns="http://www.w3.org/2000/svg"
   xmlns:sodipodi="http://sodipodi.sourceforge.net/DTD/sodipodi-0.dtd"
   xmlns:inkscape="http://www.inkscape.org/namespaces/inkscape"
   version="1.1"
   id="Capa_1"
   x="0px"
   y="0px"
   width="550.801px"
   height="550.801px"
   viewBox="0 0 550.801 550.801"
   style="enable-background:new 0 0 550.801 550.801;"
   xml:space="preserve"
   sodipodi:docname="dxf-file-format-symbol.svg"
   inkscape:version="1.0.2 (1.0.2+r75+1)"
   inkscape:export-filename="/home/artyom/Downloads/dxf.png"
   inkscape:export-xdpi="5.5773315"
   inkscape:export-ydpi="5.5773315"><metadata
   id="metadata49"><rdf:RDF><cc:Work
       rdf:about=""><dc:format>image/svg+xml</dc:format><dc:type
         rdf:resource="http://purl.org/dc/dcmitype/StillImage" /><dc:title></dc:title><cc:license
         rdf:resource="http://creativecommons.org/publicdomain/zero/1.0/" /></cc:Work><cc:License
       rdf:about="http://creativecommons.org/publicdomain/zero/1.0/"><cc:permits
         rdf:resource="http://creativecommons.org/ns#Reproduction" /><cc:permits
         rdf:resource="http://creativecommons.org/ns#Distribution" /><cc:permits
         rdf:resource="http://creativecommons.org/ns#DerivativeWorks" /></cc:License></rdf:RDF></metadata><defs
   id="defs47" /><sodipodi:namedview
   pagecolor="#ffffff"
   bordercolor="#666666"
   borderopacity="1"
   objecttolerance="10"
   gridtolerance="10"
   guidetolerance="10"
   inkscape:pageopacity="0"
   inkscape:pageshadow="2"
   inkscape:window-width="1920"
   inkscape:window-height="1056"
   id="namedview45"
   showgrid="false"
   inkscape:zoom="0.55192345"
   inkscape:cx="-41.156777"
   inkscape:cy="154.5262"
   inkscape:window-x="0"
   inkscape:window-y="0"
   inkscape:window-maximized="1"
   inkscape:current-layer="Capa_1" />
<g
   id="g6">
			<path
   d="m 162.989,417.678 c -6.162,0 -10.154,0.543 -12.514,1.097 v 79.987 c 2.359,0.538 6.172,0.538 9.613,0.538 25.033,0.19 41.352,-13.605 41.352,-42.805 0.185,-25.391 -14.686,-38.817 -38.451,-38.817 z"
   id="path2" />
			<path
   d="m 475.095,132 c -0.031,-2.529 -0.828,-5.023 -2.562,-6.995 L 366.325,3.694 C 366.304,3.663 366.272,3.652 366.24,3.62 365.607,2.911 364.88,2.328 364.099,1.817 363.867,1.664 363.635,1.529 363.392,1.395 362.706,1.026 362,0.725 361.262,0.503 361.062,0.442 360.882,0.36 360.682,0.308 359.87,0.119 359.048,0 358.204,0 H 97.2 C 85.293,0 75.6,9.695 75.6,21.601 v 507.6 c 0,11.913 9.692,21.601 21.6,21.601 h 356.4 c 11.918,0 21.6,-9.688 21.6,-21.601 V 133.207 c 0,-0.403 -0.063,-0.809 -0.105,-1.207 z M 210.514,505.106 c -12.873,10.71 -32.464,15.783 -56.408,15.783 -14.333,0 -24.484,-0.896 -31.385,-1.814 V 398.999 c 10.157,-1.635 23.398,-2.542 37.362,-2.542 23.219,0 38.275,4.166 50.069,13.068 12.695,9.423 20.677,24.479 20.677,46.063 0.005,23.398 -8.521,39.535 -20.315,49.518 z m 96.854,14.518 -11.063,-22.128 c -4.535,-8.532 -7.436,-14.887 -10.885,-21.947 h -0.364 c -2.536,7.066 -5.626,13.415 -9.434,21.947 l -10.151,22.128 h -31.569 l 35.369,-61.847 -34.101,-60.418 h 31.741 l 10.697,22.312 c 3.631,7.436 6.352,13.421 9.252,20.313 h 0.364 c 2.9,-7.783 5.258,-13.236 8.343,-20.313 l 10.336,-22.312 h 31.566 l -34.467,59.68 36.275,62.585 z M 428.879,420.04 h -46.977 v 27.938 h 43.896 v 22.486 h -43.896 v 49.159 h -27.759 v -122.26 h 74.729 v 22.676 h 0.007 z M 97.2,366.758 V 21.605 h 250.204 v 110.519 c 0,5.961 4.83,10.8 10.8,10.8 H 453.6 l 0.011,223.834 H 97.2 Z"
   id="path4" />
		</g>
<g
   id="g14">
</g>
<g
   id="g16">
</g>
<g
   id="g18">
</g>
<g
   id="g20">
</g>
<g
   id="g22">
</g>
<g
   id="g24">
</g>
<g
   id="g26">
</g>
<g
   id="g28">
</g>
<g
   id="g30">
</g>
<g
   id="g32">
</g>
<g
   id="g34">
</g>
<g
   id="g36">
</g>
<g
   id="g38">
</g>
<g
   id="g40">
</g>
<g
   id="g42">
</g>
<path
   d="m 159.76162,340.34288 3.9713,-14.81084 c 8.11352,-0.50348 14.97304,-6.18958 16.97236,-14.06902 l 21.05237,-78.50515 c 4.78016,0.88417 9.61178,1.46302 14.46551,1.73305 v 6.58046 c 0,8.52669 12.79002,8.52669 12.79002,0 v -6.58046 c 4.85346,-0.26578 9.68508,-0.84038 14.46552,-1.72026 l 21.04598,78.47317 c 1.9928,7.88615 8.85966,13.57619 16.97875,14.06903 l 5.28228,19.72221 c 0.74476,2.80058 3.27966,4.75031 6.17758,4.75149 0.55918,-6.9e-4 1.1159,-0.0738 1.6563,-0.21743 3.41206,-0.91439 5.43648,-4.42205 4.52128,-7.83389 l -5.27589,-19.67744 c 6.64672,-4.59572 9.71256,-12.85561 7.67402,-20.67507 L 259.57494,144.98171 c 13.8681,-20.25172 8.78625,-47.900483 -11.37673,-61.897298 V 62.211098 c 0,-34.106708 -51.16008,-34.106708 -51.16008,0 v 20.873314 c -20.16297,13.996815 -25.24482,41.645578 -11.37672,61.897298 l -42.00243,156.6266 c -2.03163,7.8185 1.05193,16.07201 7.71238,20.64309 l -3.1975,11.89472 c -5.6731,21.10391 8.52051,17.63595 11.58776,6.19676 z m 69.25156,-118.64023 v -6.01131 c 0,-8.52667 -12.79002,-8.52667 -12.79002,0 v 6.01131 c -3.71907,-0.22286 -7.42309,-0.64985 -11.09534,-1.279 l 15.01548,-56.0075 c 0.82496,0.0448 1.63713,0.1279 2.47487,0.1279 0.83775,0 1.64992,-0.0831 2.47487,-0.1279 l 15.01549,56.0075 c -3.67225,0.62914 -7.37627,1.05613 -11.09535,1.279 z"
   id="path2-3"
   sodipodi:nodetypes="sccccssccccccccccccssccccsscsscccsccc"
   style="fill:#000000;fill-opacity:1;stroke-width:6.39501" /></svg>
